<mxfile host="Electron" agent="Mozilla/5.0 (Windows NT 10.0; Win64; x64) AppleWebKit/537.36 (KHTML, like Gecko) draw.io/28.1.2 Chrome/138.0.7204.243 Electron/37.4.0 Safari/537.36" version="28.1.2">
  <diagram id="qPcv3C32BzfmhgD5aoJC" name="ページ1">
    <mxGraphModel dx="696" dy="922" grid="1" gridSize="10" guides="1" tooltips="1" connect="1" arrows="1" fold="1" page="1" pageScale="1" pageWidth="827" pageHeight="1169" math="0" shadow="0">
      <root>
        <mxCell id="0" />
        <mxCell id="1" parent="0" />
        <mxCell id="Ta1y1MSR1ruY-Wp-tIyb-2" value="&lt;b&gt;返却一覧&lt;/b&gt;&lt;div&gt;&lt;b&gt;画面&lt;/b&gt;&lt;/div&gt;" style="shape=umlBoundary;whiteSpace=wrap;html=1;fillColor=#D5E8D4;" vertex="1" parent="1">
          <mxGeometry x="180" y="85" width="100" height="80" as="geometry" />
        </mxCell>
        <mxCell id="Ta1y1MSR1ruY-Wp-tIyb-3" value="Actor" style="shape=umlActor;verticalLabelPosition=bottom;verticalAlign=top;html=1;" vertex="1" parent="1">
          <mxGeometry x="30" y="95" width="30" height="60" as="geometry" />
        </mxCell>
        <mxCell id="Ta1y1MSR1ruY-Wp-tIyb-4" style="edgeStyle=none;rounded=0;orthogonalLoop=1;jettySize=auto;html=1;entryX=-0.01;entryY=0.496;entryDx=0;entryDy=0;entryPerimeter=0;" edge="1" parent="1" source="Ta1y1MSR1ruY-Wp-tIyb-3" target="Ta1y1MSR1ruY-Wp-tIyb-2">
          <mxGeometry relative="1" as="geometry" />
        </mxCell>
        <mxCell id="Ta1y1MSR1ruY-Wp-tIyb-5" value="&lt;span style=&quot;font-size: 12px; background-color: rgb(236, 236, 236);&quot;&gt;返却メニューを押す&lt;/span&gt;" style="edgeLabel;html=1;align=center;verticalAlign=middle;resizable=0;points=[];" vertex="1" connectable="0" parent="Ta1y1MSR1ruY-Wp-tIyb-4">
          <mxGeometry x="-0.1368" y="4" relative="1" as="geometry">
            <mxPoint x="4" y="-6" as="offset" />
          </mxGeometry>
        </mxCell>
        <mxCell id="Ta1y1MSR1ruY-Wp-tIyb-6" value="&lt;div&gt;&lt;span style=&quot;background-color: transparent; color: light-dark(rgb(0, 0, 0), rgb(255, 255, 255));&quot;&gt;会員の氏名&lt;/span&gt;&lt;/div&gt;&lt;div&gt;会員種別を&lt;/div&gt;&lt;div&gt;表示&lt;/div&gt;" style="ellipse;shape=umlControl;whiteSpace=wrap;html=1;fillColor=#F8CECC;" vertex="1" parent="1">
          <mxGeometry x="480" y="210" width="80" height="90" as="geometry" />
        </mxCell>
        <mxCell id="Ta1y1MSR1ruY-Wp-tIyb-7" style="edgeStyle=none;rounded=0;orthogonalLoop=1;jettySize=auto;html=1;entryX=-0.021;entryY=0.42;entryDx=0;entryDy=0;exitX=0.996;exitY=0.496;exitDx=0;exitDy=0;exitPerimeter=0;entryPerimeter=0;" edge="1" parent="1" source="Ta1y1MSR1ruY-Wp-tIyb-15" target="Ta1y1MSR1ruY-Wp-tIyb-11">
          <mxGeometry relative="1" as="geometry">
            <mxPoint x="400" y="510" as="sourcePoint" />
            <mxPoint x="460" y="509.5" as="targetPoint" />
          </mxGeometry>
        </mxCell>
        <mxCell id="Ta1y1MSR1ruY-Wp-tIyb-8" value="確認" style="edgeLabel;html=1;align=center;verticalAlign=middle;resizable=0;points=[];" vertex="1" connectable="0" parent="Ta1y1MSR1ruY-Wp-tIyb-7">
          <mxGeometry x="-0.3112" y="-1" relative="1" as="geometry">
            <mxPoint x="10" y="-11" as="offset" />
          </mxGeometry>
        </mxCell>
        <mxCell id="Ta1y1MSR1ruY-Wp-tIyb-9" style="edgeStyle=none;rounded=0;orthogonalLoop=1;jettySize=auto;html=1;exitX=0.046;exitY=0.805;exitDx=0;exitDy=0;exitPerimeter=0;" edge="1" parent="1" source="Ta1y1MSR1ruY-Wp-tIyb-15" target="Ta1y1MSR1ruY-Wp-tIyb-14">
          <mxGeometry relative="1" as="geometry">
            <mxPoint x="600" y="660" as="targetPoint" />
          </mxGeometry>
        </mxCell>
        <mxCell id="Ta1y1MSR1ruY-Wp-tIyb-10" value="未登録or&lt;div&gt;未入力&lt;/div&gt;" style="edgeLabel;html=1;align=center;verticalAlign=middle;resizable=0;points=[];" vertex="1" connectable="0" parent="Ta1y1MSR1ruY-Wp-tIyb-9">
          <mxGeometry x="-0.2311" y="1" relative="1" as="geometry">
            <mxPoint x="-1" y="15" as="offset" />
          </mxGeometry>
        </mxCell>
        <mxCell id="Ta1y1MSR1ruY-Wp-tIyb-11" value="&lt;b&gt;図書情報&lt;/b&gt;" style="ellipse;shape=umlEntity;whiteSpace=wrap;html=1;fillColor=#D4E1F5;" vertex="1" parent="1">
          <mxGeometry x="660" y="90" width="80" height="80" as="geometry" />
        </mxCell>
        <mxCell id="Ta1y1MSR1ruY-Wp-tIyb-12" style="edgeStyle=none;rounded=0;orthogonalLoop=1;jettySize=auto;html=1;entryX=0.494;entryY=0.049;entryDx=0;entryDy=0;entryPerimeter=0;exitX=0.478;exitY=0.982;exitDx=0;exitDy=0;exitPerimeter=0;" edge="1" parent="1" source="Ta1y1MSR1ruY-Wp-tIyb-15" target="Ta1y1MSR1ruY-Wp-tIyb-6">
          <mxGeometry relative="1" as="geometry">
            <mxPoint x="480" y="170" as="sourcePoint" />
          </mxGeometry>
        </mxCell>
        <mxCell id="Ta1y1MSR1ruY-Wp-tIyb-13" value="&lt;span style=&quot;font-size: 12px; background-color: rgb(236, 236, 236);&quot;&gt;登録済み&lt;/span&gt;" style="edgeLabel;html=1;align=center;verticalAlign=middle;resizable=0;points=[];" vertex="1" connectable="0" parent="Ta1y1MSR1ruY-Wp-tIyb-12">
          <mxGeometry x="-0.0153" y="-2" relative="1" as="geometry">
            <mxPoint x="10" y="-6" as="offset" />
          </mxGeometry>
        </mxCell>
        <mxCell id="Ta1y1MSR1ruY-Wp-tIyb-14" value="「会員番号を&lt;div&gt;確認してください」と表示&lt;/div&gt;" style="ellipse;shape=umlControl;whiteSpace=wrap;html=1;fillColor=#F8CECC;" vertex="1" parent="1">
          <mxGeometry x="300" y="155" width="80" height="90" as="geometry" />
        </mxCell>
        <mxCell id="Ta1y1MSR1ruY-Wp-tIyb-15" value="&lt;b&gt;図書確認&lt;/b&gt;" style="ellipse;shape=umlControl;whiteSpace=wrap;html=1;fillColor=#F8CECC;" vertex="1" parent="1">
          <mxGeometry x="480" y="80" width="80" height="90" as="geometry" />
        </mxCell>
        <mxCell id="Ta1y1MSR1ruY-Wp-tIyb-16" value="" style="endArrow=block;dashed=1;endFill=0;endSize=12;html=1;rounded=0;exitX=-0.032;exitY=0.626;exitDx=0;exitDy=0;entryX=0.96;entryY=0.693;entryDx=0;entryDy=0;entryPerimeter=0;exitPerimeter=0;" edge="1" parent="1" source="Ta1y1MSR1ruY-Wp-tIyb-11" target="Ta1y1MSR1ruY-Wp-tIyb-15">
          <mxGeometry width="160" relative="1" as="geometry">
            <mxPoint x="380" y="429.33" as="sourcePoint" />
            <mxPoint x="430" y="240" as="targetPoint" />
          </mxGeometry>
        </mxCell>
        <mxCell id="Ta1y1MSR1ruY-Wp-tIyb-17" style="edgeStyle=none;rounded=0;orthogonalLoop=1;jettySize=auto;html=1;entryX=-0.032;entryY=0.498;entryDx=0;entryDy=0;entryPerimeter=0;" edge="1" parent="1" source="Ta1y1MSR1ruY-Wp-tIyb-2" target="Ta1y1MSR1ruY-Wp-tIyb-15">
          <mxGeometry relative="1" as="geometry">
            <Array as="points" />
          </mxGeometry>
        </mxCell>
        <mxCell id="Ta1y1MSR1ruY-Wp-tIyb-18" value="管理番号を入力" style="edgeLabel;html=1;align=center;verticalAlign=middle;resizable=0;points=[];" vertex="1" connectable="0" parent="Ta1y1MSR1ruY-Wp-tIyb-17">
          <mxGeometry x="-0.1187" y="1" relative="1" as="geometry">
            <mxPoint x="12" y="-14" as="offset" />
          </mxGeometry>
        </mxCell>
        <mxCell id="Ta1y1MSR1ruY-Wp-tIyb-19" style="edgeStyle=none;rounded=0;orthogonalLoop=1;jettySize=auto;html=1;entryX=0.931;entryY=0.87;entryDx=0;entryDy=0;entryPerimeter=0;exitX=0.057;exitY=0.368;exitDx=0;exitDy=0;exitPerimeter=0;" edge="1" parent="1" source="Ta1y1MSR1ruY-Wp-tIyb-14" target="Ta1y1MSR1ruY-Wp-tIyb-2">
          <mxGeometry relative="1" as="geometry" />
        </mxCell>
        <mxCell id="Ta1y1MSR1ruY-Wp-tIyb-20" value="&lt;b&gt;書籍確認&lt;/b&gt;" style="ellipse;shape=umlControl;whiteSpace=wrap;html=1;fillColor=#F8CECC;" vertex="1" parent="1">
          <mxGeometry x="480" y="340" width="80" height="90" as="geometry" />
        </mxCell>
        <mxCell id="Ta1y1MSR1ruY-Wp-tIyb-21" style="edgeStyle=none;rounded=0;orthogonalLoop=1;jettySize=auto;html=1;entryX=0.997;entryY=0.514;entryDx=0;entryDy=0;entryPerimeter=0;exitX=0.5;exitY=0.998;exitDx=0;exitDy=0;exitPerimeter=0;" edge="1" parent="1" source="Ta1y1MSR1ruY-Wp-tIyb-49" target="Ta1y1MSR1ruY-Wp-tIyb-37">
          <mxGeometry relative="1" as="geometry">
            <mxPoint x="430" y="505" as="targetPoint" />
            <mxPoint x="440" y="585" as="sourcePoint" />
            <Array as="points">
              <mxPoint x="520" y="720" />
            </Array>
          </mxGeometry>
        </mxCell>
        <mxCell id="Ta1y1MSR1ruY-Wp-tIyb-22" value="貸出を保存を確認" style="edgeLabel;html=1;align=center;verticalAlign=middle;resizable=0;points=[];" vertex="1" connectable="0" parent="Ta1y1MSR1ruY-Wp-tIyb-21">
          <mxGeometry x="0.2421" y="-2" relative="1" as="geometry">
            <mxPoint x="16" y="-13" as="offset" />
          </mxGeometry>
        </mxCell>
        <mxCell id="Ta1y1MSR1ruY-Wp-tIyb-23" style="edgeStyle=none;rounded=0;orthogonalLoop=1;jettySize=auto;html=1;entryX=0;entryY=0.5;entryDx=0;entryDy=0;exitX=1.046;exitY=0.499;exitDx=0;exitDy=0;exitPerimeter=0;" edge="1" parent="1" source="Ta1y1MSR1ruY-Wp-tIyb-49" target="Ta1y1MSR1ruY-Wp-tIyb-46">
          <mxGeometry relative="1" as="geometry" />
        </mxCell>
        <mxCell id="Ta1y1MSR1ruY-Wp-tIyb-24" value="保存" style="edgeLabel;html=1;align=center;verticalAlign=middle;resizable=0;points=[];" vertex="1" connectable="0" parent="Ta1y1MSR1ruY-Wp-tIyb-23">
          <mxGeometry x="0.2911" relative="1" as="geometry">
            <mxPoint x="-24" y="-19" as="offset" />
          </mxGeometry>
        </mxCell>
        <mxCell id="Ta1y1MSR1ruY-Wp-tIyb-25" style="edgeStyle=none;rounded=0;orthogonalLoop=1;jettySize=auto;html=1;entryX=0.501;entryY=0.065;entryDx=0;entryDy=0;entryPerimeter=0;" edge="1" parent="1" source="Ta1y1MSR1ruY-Wp-tIyb-31" target="Ta1y1MSR1ruY-Wp-tIyb-49">
          <mxGeometry relative="1" as="geometry">
            <mxPoint x="520" y="570" as="targetPoint" />
          </mxGeometry>
        </mxCell>
        <mxCell id="Ta1y1MSR1ruY-Wp-tIyb-26" value="貸出を押す" style="edgeLabel;html=1;align=center;verticalAlign=middle;resizable=0;points=[];" vertex="1" connectable="0" parent="Ta1y1MSR1ruY-Wp-tIyb-25">
          <mxGeometry x="-0.1321" y="3" relative="1" as="geometry">
            <mxPoint y="-1" as="offset" />
          </mxGeometry>
        </mxCell>
        <mxCell id="Ta1y1MSR1ruY-Wp-tIyb-27" style="edgeStyle=none;rounded=0;orthogonalLoop=1;jettySize=auto;html=1;entryX=1.024;entryY=0.556;entryDx=0;entryDy=0;entryPerimeter=0;exitX=1;exitY=0.578;exitDx=0;exitDy=0;exitPerimeter=0;" edge="1" parent="1" source="Ta1y1MSR1ruY-Wp-tIyb-31" target="Ta1y1MSR1ruY-Wp-tIyb-6">
          <mxGeometry relative="1" as="geometry">
            <mxPoint x="770" y="250" as="targetPoint" />
            <Array as="points">
              <mxPoint x="770" y="512" />
              <mxPoint x="770" y="260" />
            </Array>
          </mxGeometry>
        </mxCell>
        <mxCell id="Ta1y1MSR1ruY-Wp-tIyb-28" value="複数の&lt;div&gt;貸し出し&lt;/div&gt;" style="edgeLabel;html=1;align=center;verticalAlign=middle;resizable=0;points=[];" vertex="1" connectable="0" parent="Ta1y1MSR1ruY-Wp-tIyb-27">
          <mxGeometry x="-0.036" y="-1" relative="1" as="geometry">
            <mxPoint y="-18" as="offset" />
          </mxGeometry>
        </mxCell>
        <mxCell id="Ta1y1MSR1ruY-Wp-tIyb-29" style="edgeStyle=none;rounded=0;orthogonalLoop=1;jettySize=auto;html=1;entryX=1.028;entryY=0.632;entryDx=0;entryDy=0;entryPerimeter=0;exitX=0.009;exitY=0.729;exitDx=0;exitDy=0;exitPerimeter=0;endArrow=none;endFill=0;startArrow=classic;startFill=1;" edge="1" parent="1" source="Ta1y1MSR1ruY-Wp-tIyb-31" target="Ta1y1MSR1ruY-Wp-tIyb-58">
          <mxGeometry relative="1" as="geometry">
            <mxPoint x="610" y="530" as="targetPoint" />
          </mxGeometry>
        </mxCell>
        <mxCell id="Ta1y1MSR1ruY-Wp-tIyb-30" value="一覧から削除" style="edgeLabel;html=1;align=center;verticalAlign=middle;resizable=0;points=[];" vertex="1" connectable="0" parent="Ta1y1MSR1ruY-Wp-tIyb-29">
          <mxGeometry x="-0.2044" relative="1" as="geometry">
            <mxPoint y="11" as="offset" />
          </mxGeometry>
        </mxCell>
        <mxCell id="Ta1y1MSR1ruY-Wp-tIyb-31" value="&lt;div&gt;&lt;span style=&quot;background-color: transparent; color: light-dark(rgb(0, 0, 0), rgb(255, 255, 255));&quot;&gt;貸出一覧に&lt;/span&gt;&lt;/div&gt;&lt;div&gt;&lt;span style=&quot;background-color: transparent; color: light-dark(rgb(0, 0, 0), rgb(255, 255, 255));&quot;&gt;書名を&lt;/span&gt;&lt;span style=&quot;background-color: transparent; color: light-dark(rgb(0, 0, 0), rgb(255, 255, 255));&quot;&gt;表示&lt;/span&gt;&lt;/div&gt;" style="ellipse;shape=umlControl;whiteSpace=wrap;html=1;fillColor=#F8CECC;" vertex="1" parent="1">
          <mxGeometry x="480" y="460" width="80" height="90" as="geometry" />
        </mxCell>
        <mxCell id="Ta1y1MSR1ruY-Wp-tIyb-32" style="edgeStyle=none;rounded=0;orthogonalLoop=1;jettySize=auto;html=1;entryX=0.515;entryY=0.109;entryDx=0;entryDy=0;entryPerimeter=0;" edge="1" parent="1" source="Ta1y1MSR1ruY-Wp-tIyb-20" target="Ta1y1MSR1ruY-Wp-tIyb-31">
          <mxGeometry relative="1" as="geometry" />
        </mxCell>
        <mxCell id="Ta1y1MSR1ruY-Wp-tIyb-33" value="登録済み" style="edgeLabel;html=1;align=center;verticalAlign=middle;resizable=0;points=[];" vertex="1" connectable="0" parent="Ta1y1MSR1ruY-Wp-tIyb-32">
          <mxGeometry x="-0.3262" relative="1" as="geometry">
            <mxPoint x="-1" y="7" as="offset" />
          </mxGeometry>
        </mxCell>
        <mxCell id="Ta1y1MSR1ruY-Wp-tIyb-34" value="「管理番号を確認してください」と表示" style="ellipse;shape=umlControl;whiteSpace=wrap;html=1;fillColor=#F8CECC;" vertex="1" parent="1">
          <mxGeometry x="300" y="280" width="80" height="90" as="geometry" />
        </mxCell>
        <mxCell id="Ta1y1MSR1ruY-Wp-tIyb-35" style="edgeStyle=none;rounded=0;orthogonalLoop=1;jettySize=auto;html=1;entryX=1.049;entryY=0.596;entryDx=0;entryDy=0;entryPerimeter=0;" edge="1" parent="1" source="Ta1y1MSR1ruY-Wp-tIyb-20" target="Ta1y1MSR1ruY-Wp-tIyb-34">
          <mxGeometry relative="1" as="geometry" />
        </mxCell>
        <mxCell id="Ta1y1MSR1ruY-Wp-tIyb-36" value="&lt;div&gt;未登録or&lt;/div&gt;未入力" style="edgeLabel;html=1;align=center;verticalAlign=middle;resizable=0;points=[];" vertex="1" connectable="0" parent="Ta1y1MSR1ruY-Wp-tIyb-35">
          <mxGeometry x="-0.2175" relative="1" as="geometry">
            <mxPoint x="-23" y="14" as="offset" />
          </mxGeometry>
        </mxCell>
        <mxCell id="Ta1y1MSR1ruY-Wp-tIyb-37" value="&lt;b&gt;貸出完了&lt;/b&gt;&lt;div&gt;&lt;b&gt;画面&lt;/b&gt;&lt;/div&gt;" style="shape=umlBoundary;whiteSpace=wrap;html=1;fillColor=#D5E8D4;" vertex="1" parent="1">
          <mxGeometry x="190" y="680" width="100" height="80" as="geometry" />
        </mxCell>
        <mxCell id="Ta1y1MSR1ruY-Wp-tIyb-38" style="edgeStyle=none;rounded=0;orthogonalLoop=1;jettySize=auto;html=1;entryX=0.125;entryY=0.889;entryDx=0;entryDy=0;entryPerimeter=0;" edge="1" parent="1" source="Ta1y1MSR1ruY-Wp-tIyb-34" target="Ta1y1MSR1ruY-Wp-tIyb-6">
          <mxGeometry relative="1" as="geometry" />
        </mxCell>
        <mxCell id="Ta1y1MSR1ruY-Wp-tIyb-39" style="edgeStyle=none;rounded=0;orthogonalLoop=1;jettySize=auto;html=1;entryX=0;entryY=0.5;entryDx=0;entryDy=0;exitX=1.043;exitY=0.555;exitDx=0;exitDy=0;exitPerimeter=0;" edge="1" parent="1" source="Ta1y1MSR1ruY-Wp-tIyb-20" target="Ta1y1MSR1ruY-Wp-tIyb-41">
          <mxGeometry relative="1" as="geometry">
            <mxPoint x="532.3199999999999" y="373.9699999999999" as="sourcePoint" />
            <mxPoint x="490.28" y="759.5" as="targetPoint" />
          </mxGeometry>
        </mxCell>
        <mxCell id="Ta1y1MSR1ruY-Wp-tIyb-40" value="確認" style="edgeLabel;html=1;align=center;verticalAlign=middle;resizable=0;points=[];" vertex="1" connectable="0" parent="Ta1y1MSR1ruY-Wp-tIyb-39">
          <mxGeometry x="-0.3112" y="-1" relative="1" as="geometry">
            <mxPoint x="10" y="-11" as="offset" />
          </mxGeometry>
        </mxCell>
        <mxCell id="Ta1y1MSR1ruY-Wp-tIyb-41" value="&lt;b&gt;書籍情報&lt;/b&gt;" style="ellipse;shape=umlEntity;whiteSpace=wrap;html=1;fillColor=#D4E1F5;" vertex="1" parent="1">
          <mxGeometry x="660.0000000000001" y="350" width="80" height="80" as="geometry" />
        </mxCell>
        <mxCell id="Ta1y1MSR1ruY-Wp-tIyb-42" value="" style="endArrow=block;dashed=1;endFill=0;endSize=12;html=1;rounded=0;entryX=1.003;entryY=0.738;entryDx=0;entryDy=0;entryPerimeter=0;exitX=0.057;exitY=0.685;exitDx=0;exitDy=0;exitPerimeter=0;" edge="1" parent="1" source="Ta1y1MSR1ruY-Wp-tIyb-41" target="Ta1y1MSR1ruY-Wp-tIyb-20">
          <mxGeometry width="160" relative="1" as="geometry">
            <mxPoint x="657" y="386" as="sourcePoint" />
            <mxPoint x="530" y="399.0799999999999" as="targetPoint" />
          </mxGeometry>
        </mxCell>
        <mxCell id="Ta1y1MSR1ruY-Wp-tIyb-43" style="edgeStyle=none;rounded=0;orthogonalLoop=1;jettySize=auto;html=1;entryX=0.503;entryY=0.105;entryDx=0;entryDy=0;entryPerimeter=0;" edge="1" parent="1" source="Ta1y1MSR1ruY-Wp-tIyb-6" target="Ta1y1MSR1ruY-Wp-tIyb-20">
          <mxGeometry relative="1" as="geometry" />
        </mxCell>
        <mxCell id="Ta1y1MSR1ruY-Wp-tIyb-44" value="管理番号を入力" style="edgeLabel;html=1;align=center;verticalAlign=middle;resizable=0;points=[];" vertex="1" connectable="0" parent="Ta1y1MSR1ruY-Wp-tIyb-43">
          <mxGeometry x="-0.2527" y="-3" relative="1" as="geometry">
            <mxPoint as="offset" />
          </mxGeometry>
        </mxCell>
        <mxCell id="Ta1y1MSR1ruY-Wp-tIyb-45" value="「貸し出す&lt;div&gt;書籍を入力してください」と表示&lt;/div&gt;" style="ellipse;shape=umlControl;whiteSpace=wrap;html=1;fillColor=#F8CECC;" vertex="1" parent="1">
          <mxGeometry x="300" y="580" width="80" height="90" as="geometry" />
        </mxCell>
        <mxCell id="Ta1y1MSR1ruY-Wp-tIyb-46" value="&lt;b&gt;貸出情報&lt;/b&gt;" style="ellipse;shape=umlEntity;whiteSpace=wrap;html=1;fillColor=#D4E1F5;" vertex="1" parent="1">
          <mxGeometry x="660" y="585" width="80" height="80" as="geometry" />
        </mxCell>
        <mxCell id="Ta1y1MSR1ruY-Wp-tIyb-47" style="edgeStyle=none;rounded=0;orthogonalLoop=1;jettySize=auto;html=1;" edge="1" parent="1" source="Ta1y1MSR1ruY-Wp-tIyb-49" target="Ta1y1MSR1ruY-Wp-tIyb-45">
          <mxGeometry relative="1" as="geometry" />
        </mxCell>
        <mxCell id="Ta1y1MSR1ruY-Wp-tIyb-48" value="一冊も確定&lt;div&gt;していない&lt;/div&gt;" style="edgeLabel;html=1;align=center;verticalAlign=middle;resizable=0;points=[];" vertex="1" connectable="0" parent="Ta1y1MSR1ruY-Wp-tIyb-47">
          <mxGeometry x="0.4808" y="1" relative="1" as="geometry">
            <mxPoint x="36" y="-8" as="offset" />
          </mxGeometry>
        </mxCell>
        <mxCell id="Ta1y1MSR1ruY-Wp-tIyb-49" value="&lt;b&gt;貸出確認&lt;/b&gt;" style="ellipse;shape=umlControl;whiteSpace=wrap;html=1;fillColor=#F8CECC;" vertex="1" parent="1">
          <mxGeometry x="480" y="579.5" width="80" height="90" as="geometry" />
        </mxCell>
        <mxCell id="Ta1y1MSR1ruY-Wp-tIyb-50" value="&lt;div&gt;貸出できない理由を表示&lt;/div&gt;" style="ellipse;shape=umlControl;whiteSpace=wrap;html=1;fillColor=#F8CECC;" vertex="1" parent="1">
          <mxGeometry x="300" y="380" width="80" height="90" as="geometry" />
        </mxCell>
        <mxCell id="Ta1y1MSR1ruY-Wp-tIyb-51" value="" style="endArrow=block;dashed=1;endFill=0;endSize=12;html=1;rounded=0;entryX=1.024;entryY=0.697;entryDx=0;entryDy=0;entryPerimeter=0;exitX=0;exitY=0.688;exitDx=0;exitDy=0;exitPerimeter=0;" edge="1" parent="1" source="Ta1y1MSR1ruY-Wp-tIyb-46" target="Ta1y1MSR1ruY-Wp-tIyb-49">
          <mxGeometry width="160" relative="1" as="geometry">
            <mxPoint x="675" y="740" as="sourcePoint" />
            <mxPoint x="570" y="741" as="targetPoint" />
          </mxGeometry>
        </mxCell>
        <mxCell id="Ta1y1MSR1ruY-Wp-tIyb-52" style="edgeStyle=none;rounded=0;orthogonalLoop=1;jettySize=auto;html=1;entryX=0.963;entryY=0.432;entryDx=0;entryDy=0;entryPerimeter=0;exitX=-0.01;exitY=0.681;exitDx=0;exitDy=0;exitPerimeter=0;" edge="1" parent="1" source="Ta1y1MSR1ruY-Wp-tIyb-20" target="Ta1y1MSR1ruY-Wp-tIyb-50">
          <mxGeometry relative="1" as="geometry">
            <mxPoint x="480" y="410" as="sourcePoint" />
          </mxGeometry>
        </mxCell>
        <mxCell id="Ta1y1MSR1ruY-Wp-tIyb-53" value="貸出上限or&lt;span style=&quot;background-color: light-dark(#ffffff, var(--ge-dark-color, #121212)); color: light-dark(rgb(0, 0, 0), rgb(255, 255, 255));&quot;&gt;学生&lt;/span&gt;&lt;div&gt;&lt;span style=&quot;background-color: light-dark(#ffffff, var(--ge-dark-color, #121212)); color: light-dark(rgb(0, 0, 0), rgb(255, 255, 255));&quot;&gt;に雑誌の貸し出し&lt;/span&gt;&lt;/div&gt;" style="edgeLabel;html=1;align=center;verticalAlign=middle;resizable=0;points=[];" vertex="1" connectable="0" parent="Ta1y1MSR1ruY-Wp-tIyb-52">
          <mxGeometry x="-0.289" relative="1" as="geometry">
            <mxPoint x="-3" y="22" as="offset" />
          </mxGeometry>
        </mxCell>
        <mxCell id="Ta1y1MSR1ruY-Wp-tIyb-54" style="edgeStyle=none;rounded=0;orthogonalLoop=1;jettySize=auto;html=1;entryX=0.035;entryY=0.664;entryDx=0;entryDy=0;entryPerimeter=0;" edge="1" parent="1" source="Ta1y1MSR1ruY-Wp-tIyb-50" target="Ta1y1MSR1ruY-Wp-tIyb-6">
          <mxGeometry relative="1" as="geometry">
            <mxPoint x="479" y="260" as="targetPoint" />
            <Array as="points">
              <mxPoint x="290" y="425" />
              <mxPoint x="290" y="280" />
            </Array>
          </mxGeometry>
        </mxCell>
        <mxCell id="Ta1y1MSR1ruY-Wp-tIyb-55" style="edgeStyle=none;rounded=0;orthogonalLoop=1;jettySize=auto;html=1;entryX=-0.021;entryY=0.457;entryDx=0;entryDy=0;entryPerimeter=0;" edge="1" parent="1" source="Ta1y1MSR1ruY-Wp-tIyb-45" target="Ta1y1MSR1ruY-Wp-tIyb-6">
          <mxGeometry relative="1" as="geometry">
            <Array as="points">
              <mxPoint x="250" y="535" />
              <mxPoint x="250" y="255" />
            </Array>
          </mxGeometry>
        </mxCell>
        <mxCell id="Ta1y1MSR1ruY-Wp-tIyb-56" value="" style="edgeStyle=none;rounded=0;orthogonalLoop=1;jettySize=auto;html=1;startArrow=classic;startFill=1;endArrow=none;endFill=0;" edge="1" parent="1" source="Ta1y1MSR1ruY-Wp-tIyb-58" target="Ta1y1MSR1ruY-Wp-tIyb-31">
          <mxGeometry relative="1" as="geometry" />
        </mxCell>
        <mxCell id="Ta1y1MSR1ruY-Wp-tIyb-57" value="キャンセルを押す" style="edgeLabel;html=1;align=center;verticalAlign=middle;resizable=0;points=[];" vertex="1" connectable="0" parent="Ta1y1MSR1ruY-Wp-tIyb-56">
          <mxGeometry x="0.1041" y="-2" relative="1" as="geometry">
            <mxPoint x="-6" y="-16" as="offset" />
          </mxGeometry>
        </mxCell>
        <mxCell id="Ta1y1MSR1ruY-Wp-tIyb-58" value="&lt;b&gt;キャンセル&lt;/b&gt;&lt;div&gt;&lt;b&gt;確認&lt;/b&gt;&lt;/div&gt;" style="ellipse;shape=umlControl;whiteSpace=wrap;html=1;fillColor=#F8CECC;" vertex="1" parent="1">
          <mxGeometry x="300" y="480" width="80" height="90" as="geometry" />
        </mxCell>
      </root>
    </mxGraphModel>
  </diagram>
</mxfile>
